<svg height="367" viewBox="0 0 345 367" width="345" xmlns="http://www.w3.org/2000/svg"><g fill="none" fill-rule="evenodd"><path d="m344.79 289.27v.36.33l-.06.39c-.335278 2.495384-1.984864 4.618463-4.32 5.56l-163.6 69.94c-1.039845.669647-2.235232 1.058922-3.47 1.13-1.714775.171566-3.433003-.290897-4.83-1.3l-163.18-69.77c-1.57108957-.644989-2.85410995-1.839157-3.61-3.36l-.19-.38v-.09c-.41077246-.918199-.61882936-1.914144-.61-2.92v-211.65c-.03987033-3.5200953 2.51954926-6.531679 6-7.06l163.07-69.74c.758364-.34156893 1.570577-.54800636 2.4-.61h.13.09c.236429-.01499126.473571-.01499126.71 0h.47.22l.47.11.22.06c.212556.04271132.422823.09611244.63.16h.06l.44.19 163.18 69.77c3.395914.5948776 5.867575 3.5524205 5.85 7v211.88zm-14.11-4.57v-196.31l-150.79 64.48v196.33zm-157.84-144.17 147-62.86-34.61-14.79-.42.19-146.55 62.69zm-54.84-21.47 149.3-63.84-42-17.94-153.86 65.83v83.1l18-9c3.1770657-1.573178 7.0281107-.546233 9 2.4l15.29 22.95v-75.48c-.019959-.276307-.019959-.553693 0-.83-.30183-3.072491 1.427701-5.984745 4.27-7.19zm-57.18-26.78 146.57-62.69-34.58-14.77-147 62.85 34.61 14.8zm104.93 256.9v-196.31l-37.91-16.2v88.33c.434955 3.391696-1.619797 6.608562-4.88 7.64l-.25.05-.41.11c-.24.06-.48.1-.72.14s-.46 0-.69 0h-.71c-.467098-.03778-.929333-.121519-1.38-.25-.214453-.059899-.424878-.133381-.63-.22-1.55765-.625181-2.838814-1.789229-3.61-3.28l-24.39-36.56-22.62 11.32c-2.187536 1.101223-4.7898478.988267-6.8737368-.298361-2.0838891-1.286628-3.3507429-3.562561-3.3462632-6.011639v-91.17l-42.33-18.11v196.34z" fill="#2b2b2b"/><path d="m330.68 88.39v196.31l-150.79 64.5v-196.33zm-44.45 186.28c3.576044-1.529829 5.234829-5.668956 3.705-9.245s-5.668956-5.234829-9.245-3.705l-41.17 17.58-41.14 17.6c-2.322226.989626-3.940093 3.14297-4.244165 5.64889-.304073 2.50592.751845 4.983706 2.77 6.500001 2.018154 1.516294 4.691939 1.840735 7.014165.851109l41.17-17.6zm-41.14-10.53c3.23188-1.256114 5.070557-4.675847 4.336045-8.064558-.734511-3.388711-3.824119-5.740226-7.286045-5.545442h-.08c-.876794.038999-1.738434.242536-2.54.6l-41.14 17.58c-2.322226.989626-3.940093 3.14297-4.244165 5.64889-.304073 2.50592.751845 4.983706 2.77 6.500001 2.018154 1.516294 4.691939 1.840735 7.014165.851109z" fill="#f5a623"/><path d="m319.88 77.67-147 62.86-34.58-14.77 146.59-62.69.42-.19z" fill="#f5a623"/><path d="m290 265.44c1.493512 3.595396-.200802 7.721654-3.79 9.23l-41.14 17.61-41.17 17.6c-2.322226.989626-4.996011.665185-7.014165-.851109-2.018155-1.516295-3.074073-3.994081-2.77-6.500001.304072-2.50592 1.921939-4.659264 4.244165-5.64889l41.14-17.6 41.17-17.58c1.727253-.772865 3.693823-.813517 5.451539-.112692 1.757716.700826 3.15682 2.083419 3.878461 3.832692z" fill="#2b2b2b"/><path d="m267.33 55.22-149.33 63.84c-2.8305 1.215081-4.546504 4.125002-4.24 7.19-.019959.276307-.019959.553693 0 .83v75.47l-15.29-22.95c-1.9718893-2.946233-5.8229343-3.973178-9-2.4l-18 9v-83.1l153.92-65.83z" fill="#00acc1"/><path d="m249.08 255c.682928 1.742372.64507 3.684782-.105231 5.39922-.750302 1.714439-2.151474 3.060212-3.894769 3.74078l-41.17 17.58c-3.589851 1.529829-7.740171-.140149-9.27-3.73s.140149-7.740171 3.73-9.27l41.14-17.58c.801566-.357464 1.663206-.561001 2.54-.6h.08c3.035229-.164514 5.835025 1.63219 6.95 4.46z" fill="#2b2b2b"/><g fill="#f5a623"><path d="m207.42 29.59-146.57 62.69-.41.19-34.61-14.8 147-62.85z"/><path d="m165.78 152.87v196.31l-150.78-64.48v-196.34l42.33 18.11v91.15c-.0044797 2.449078 1.2623741 4.725011 3.3462632 6.011639 2.083889 1.286628 4.6862008 1.399584 6.8737368.298361l22.62-11.32 24.39 36.56c.771186 1.490771 2.05235 2.654819 3.61 3.28.205122.086619.415547.160101.63.22.450667.128481.912902.21222 1.38.25h.71.69c.24 0 .48-.08.72-.14l.41-.11.25-.05c3.260203-1.031438 5.314955-4.248304 4.88-7.64v-88.31z"/></g></g></svg>