<svg viewBox="0 0 294.58 171.12" xmlns="http://www.w3.org/2000/svg"><path d="m286.58 160.82a27.33 27.33 0 0 1 -38.67 0l-139-139 9.87-9.87a40.72 40.72 0 0 1 57.57 0l110.23 110.22a27.33 27.33 0 0 1 0 38.65z" fill="#3691ff"/><path d="m164.29 159.22a27.33 27.33 0 0 1 -38.65 0l-77.09-77.08 38.65-38.65 77.09 77.07a27.33 27.33 0 0 1 0 38.66z" fill="#3939ff"/><path d="m67.76 143.79-.38.38-18.94 18.94a27.36 27.36 0 0 1 -38.67 0l-1.77-1.77a27.33 27.33 0 0 1 0-38.66l19-18.94.38-.38z" fill="#5639ff"/></svg>